<?xml version="1.0" standalone="no"?>
<!DOCTYPE svg PUBLIC "-//W3C//DTD SVG 20010904//EN"
 "http://www.w3.org/TR/2001/REC-SVG-20010904/DTD/svg10.dtd">
<svg version="1.0" xmlns="http://www.w3.org/2000/svg"
 width="128.000000pt" height="128.000000pt" viewBox="0 0 128.000000 128.000000"
 preserveAspectRatio="xMidYMid meet">
<metadata>
Created by potrace 1.16, written by Peter Selinger 2001-2019
</metadata>
<g transform="translate(0.000000,128.000000) scale(0.100000,-0.100000)"
fill="#000000" stroke="none">
<path d="M0 640 l0 -640 250 0 250 0 0 101 0 101 33 -4 c28 -3 32 0 35 25 2
15 -1 27 -7 27 -6 0 -11 -7 -11 -15 0 -9 -8 -6 -25 11 -20 20 -25 35 -25 75 0
36 3 48 12 43 7 -5 9 -2 5 9 -5 13 10 27 29 27 2 0 4 -27 4 -60 0 -33 4 -60
10 -60 6 0 10 21 10 48 0 26 4 53 9 60 19 31 31 -54 31 -219 0 -106 4 -169 10
-169 6 0 10 65 10 176 0 114 3 173 10 169 6 -3 10 -39 10 -80 0 -41 5 -77 10
-80 6 -3 10 -44 10 -90 0 -71 -2 -83 -15 -79 -8 4 -15 1 -15 -5 0 -6 11 -11
25 -11 25 0 25 0 26 103 0 56 0 130 -1 165 -1 38 3 62 9 62 7 0 12 -37 13
-102 1 -57 3 -85 6 -63 4 37 5 38 13 15 6 -17 6 -11 3 19 -4 30 -3 41 5 37 6
-4 11 -38 11 -82 0 -48 4 -73 10 -69 6 3 7 17 4 31 -7 26 6 127 13 107 7 -18
41 -16 108 7 71 24 101 25 113 3 6 -9 16 -14 25 -10 9 3 18 1 21 -6 3 -7 3 0
0 15 -5 23 -3 28 12 28 13 0 6 8 -21 25 -28 17 -55 24 -90 25 -34 0 -60 7 -80
21 -16 11 -40 24 -52 29 -19 8 -23 17 -21 50 1 23 5 43 10 46 4 3 5 -3 1 -12
-4 -12 -2 -15 8 -12 8 3 13 13 13 22 -2 16 0 16 15 2 10 -9 22 -16 27 -16 15
0 85 -61 80 -69 -3 -4 0 -8 7 -8 47 -1 197 -107 178 -126 -6 -6 -7 -16 -1 -27
7 -13 5 -22 -5 -30 -13 -11 -15 -6 -15 29 0 22 -4 41 -10 41 -5 0 -9 -3 -9 -7
1 -5 1 -24 0 -44 -1 -39 -25 -59 -45 -39 -15 15 -29 12 -23 -4 4 -10 1 -13 -9
-9 -9 3 -12 0 -9 -8 6 -17 -83 -58 -207 -96 -10 -3 -18 -10 -19 -17 0 -6 -5 0
-12 14 l-11 25 -4 -28 c-2 -15 -7 -25 -12 -22 -5 3 -11 1 -15 -5 -4 -7 87 -10
274 -10 l281 0 0 476 c0 376 -3 475 -12 471 -7 -2 -12 -13 -10 -24 2 -15 -4
-22 -22 -25 -27 -5 -46 7 -46 31 0 9 -7 24 -14 33 -11 15 -17 16 -39 5 -29
-13 -36 -44 -15 -65 9 -9 8 -12 -7 -12 -25 0 -68 27 -120 75 -58 53 -145 94
-215 102 -52 5 -60 9 -61 27 0 20 -1 21 -8 1 -6 -15 -23 -23 -67 -31 -62 -12
-62 -12 22 -30 20 -4 24 -8 16 -16 -8 -8 -25 -8 -64 1 -29 6 -99 18 -155 26
-56 7 -106 16 -111 19 -5 3 -51 10 -103 17 -52 6 -97 13 -102 16 -19 11 67 66
128 81 95 22 110 24 206 26 61 1 102 6 112 14 8 7 24 13 34 13 158 -1 206 -5
218 -18 8 -7 18 -12 22 -11 17 6 71 -25 76 -43 5 -20 26 -24 99 -20 47 3 78
-6 78 -24 0 -16 34 -38 44 -28 3 4 28 -17 55 -46 60 -66 61 -63 61 110 l0 129
-640 0 -640 0 0 -640z m275 389 c66 -11 142 -23 170 -26 27 -2 55 -9 62 -15 8
-6 13 -7 13 -1 0 12 50 5 68 -10 11 -9 10 -12 -3 -19 -18 -10 -55 -1 -55 13 0
6 -7 6 -19 -1 -11 -5 -26 -7 -34 -4 -10 3 -17 -3 -21 -20 -6 -25 -26 -37 -26
-16 0 6 -8 10 -18 10 -10 0 -22 4 -28 10 -5 5 -64 30 -129 54 -66 25 -115 45
-110 45 6 1 64 -8 130 -20z m518 -21 c9 -5 17 -14 17 -19 0 -6 7 -9 15 -5 9 3
20 -3 27 -14 7 -11 18 -20 25 -20 6 0 23 -13 36 -30 14 -16 30 -30 35 -30 5 0
17 -9 26 -19 17 -19 17 -20 -13 -35 -37 -20 -43 -20 -67 0 -15 12 -16 15 -2
10 21 -6 44 19 27 30 -8 5 -9 3 -4 -6 6 -10 4 -12 -9 -7 -10 4 -25 7 -33 7
-13 0 -13 2 -2 17 12 15 12 16 -4 10 -11 -4 -16 -3 -12 3 4 6 -1 17 -9 26 -9
8 -16 12 -16 7 0 -4 -5 0 -11 9 -8 14 -15 15 -35 8 -23 -9 -25 -8 -18 12 6 19
5 21 -8 11 -12 -10 -19 -8 -37 11 -13 14 -20 30 -16 36 7 12 55 5 88 -12z
m-592 -62 c76 -23 109 -44 103 -64 -4 -11 -3 -13 3 -5 10 14 19 8 53 -32 14
-17 18 -24 10 -17 -8 6 -22 12 -32 12 -11 0 -33 7 -50 16 -22 11 -29 12 -26 3
2 -7 11 -16 19 -20 8 -4 31 -15 51 -25 45 -22 42 -32 -4 -13 -91 38 -290 149
-225 125 11 -3 31 -9 45 -12 l27 -7 -24 27 c-28 30 -19 33 50 12z m453 -53 c4
-16 5 -64 4 -108 -2 -62 2 -91 16 -123 11 -23 23 -42 27 -42 17 0 20 22 5 39
-19 21 -20 42 -5 110 10 47 46 101 69 101 6 0 10 -25 9 -65 -1 -41 -6 -65 -13
-65 -7 0 -10 14 -8 40 5 48 -12 53 -27 8 -24 -78 -12 -128 30 -128 21 0 26
-34 9 -60 -8 -12 -10 -11 -10 8 l0 23 -30 -23 c-39 -29 -38 -44 5 -52 41 -8
38 -26 -4 -26 -23 0 -30 -5 -34 -29 -3 -16 -18 -42 -32 -57 l-25 -29 -25 29
c-14 15 -29 41 -32 57 -3 16 -12 29 -19 29 -16 0 -19 16 -4 25 18 11 10 39
-15 58 l-25 18 0 -31 c0 -21 -4 -30 -12 -28 -10 4 -14 43 -15 144 -1 76 0 145
3 153 6 19 52 -23 70 -66 16 -38 19 -129 4 -138 -14 -9 -12 -45 3 -45 28 0 49
81 47 183 -1 53 2 102 5 107 11 18 23 11 29 -17z m344 -237 c6 -3 12 -1 14 5
2 6 12 0 23 -12 20 -22 20 -22 0 -16 -16 6 -15 3 5 -12 14 -11 42 -23 63 -26
20 -4 37 -10 37 -15 0 -11 85 -60 105 -60 9 0 13 -4 10 -10 -9 -15 -61 -12
-103 5 l-37 16 35 -30 c19 -17 38 -30 41 -31 18 -1 49 -41 49 -62 0 -13 6 -30
13 -37 10 -11 3 -12 -37 -7 -44 5 -125 38 -166 66 -8 5 -42 26 -74 45 -33 19
-56 35 -52 35 4 0 4 5 0 11 -4 8 -9 7 -15 -2 -6 -10 -9 -8 -9 9 0 12 6 22 14
22 7 0 19 7 26 15 10 12 10 15 -3 15 -18 0 -29 24 -21 45 4 10 13 13 25 10 23
-8 24 -2 3 19 -14 14 -12 15 14 12 16 -2 34 -6 40 -10z m-712 -30 c19 -21 22
-22 32 -7 6 9 11 11 11 5 1 -16 -22 -34 -49 -39 -27 -5 -36 -13 -27 -22 4 -3
27 4 51 17 42 21 66 21 66 -1 0 -6 -4 -7 -10 -4 -5 3 -10 2 -10 -4 0 -5 6 -12
13 -15 8 -4 9 -8 1 -11 -6 -3 -20 -13 -30 -21 -10 -9 -13 -13 -6 -9 7 4 19 1
27 -5 11 -9 15 -9 15 -1 0 6 8 11 18 11 14 0 15 -2 2 -10 -8 -5 -10 -10 -5
-10 6 0 1 -7 -9 -15 -11 -8 -14 -15 -7 -15 8 0 6 -8 -6 -25 -17 -23 -72 -37
-58 -15 9 15 -11 12 -24 -4 -9 -10 -9 -20 0 -40 10 -22 9 -29 -5 -45 -15 -17
-20 -18 -34 -6 -9 8 -34 27 -54 43 -35 27 -36 30 -20 47 16 18 16 18 -9 2 -25
-15 -27 -15 -52 11 -19 21 -23 32 -16 50 6 15 5 22 -4 22 -7 0 -3 7 7 15 11 8
15 15 9 15 -7 0 -15 9 -18 20 -4 11 -18 32 -32 46 -14 14 -23 27 -21 29 2 3
45 7 94 11 49 3 91 8 93 10 9 9 47 -8 67 -30z m37 -306 c-4 -15 -1 -18 15 -15
22 4 26 -25 4 -38 -11 -7 -10 -13 2 -32 11 -17 16 -48 16 -102 0 -54 -3 -73
-10 -63 -5 8 -10 12 -10 8 0 -4 -15 -1 -34 7 -18 8 -37 11 -40 7 -4 -4 -6 16
-4 43 2 41 7 50 23 53 44 7 45 11 15 56 -36 52 -37 70 -8 90 26 18 38 13 31
-14z"/>
</g>
</svg>
